<?xml version="1.0" encoding="UTF-8"?>
<svg width="80px" height="80px" viewBox="0 0 80 80" version="1.1" xmlns="http://www.w3.org/2000/svg" xmlns:xlink="http://www.w3.org/1999/xlink">
    <!-- Generator: Sketch 50.2 (55047) - http://www.bohemiancoding.com/sketch -->
    <title>icon-首页-独有认证标识</title>
    <desc>Created with Sketch.</desc>
    <defs></defs>
    <g id="Page-1" stroke="none" stroke-width="1" fill="none" fill-rule="evenodd">
        <g id="06-icon" transform="translate(-542.000000, -153.000000)">
            <g id="icon-首页-独有认证标识" transform="translate(542.000000, 153.000000)">
                <path d="M40,80 C17.90861,80 0,62.09139 0,40 C0,17.90861 17.90861,0 40,0 C62.09139,0 80,17.90861 80,40 C80,62.09139 62.09139,80 40,80 Z M40,78 C60.9868205,78 78,60.9868205 78,40 C78,19.0131795 60.9868205,2 40,2 C19.0131795,2 2,19.0131795 2,40 C2,60.9868205 19.0131795,78 40,78 Z" id="Combined-Shape" fill="#EA524E" opacity="0.12"></path>
                <path d="M53.0072593,35.4963158 C52.5843333,35.0131579 52.2500741,34.2450789 52.2500741,33.3725526 C52.2500741,31.5386842 53.7616296,29.94 55.5997037,29.94 C57.4455185,29.94 59,31.5386842 59,33.3725526 C59,35.1595263 57.6805556,36.609 55.9797037,36.8484474 L51.5945427,49.0170732 C51.1657789,50.2068736 50.0369089,51 48.7722099,51 L31.2445984,51 C29.9723523,51 28.8384622,50.1975255 28.4153575,48.9976954 L24.1152963,36.8036842 C22.4644074,36.8036842 21,35.205 21,33.3711316 C21,31.4861053 22.5572963,29.8916842 24.3988889,29.8916842 C26.2404815,29.8916842 27.7478148,31.4875263 27.7478148,33.3711316 C27.7478148,33.9047368 27.6098889,34.3815 26.9477037,35.4487105 L31.8145185,41.0995263 L33.8454074,31.0512632 C32.5203333,31.0036579 31.1966667,29.5101316 31.1966667,27.6705789 C31.1966667,25.6434474 32.8032222,24 34.7876667,24 C36.7242593,24 38.373037,25.6427368 38.373037,27.6705789 C38.373037,28.7818421 37.8044444,30.0849474 36.7242593,30.6185526 L40.0703704,40.5659211 L43.3777778,30.6164211 C42.4798519,29.8916842 41.9633333,28.8294474 41.9633333,27.6705789 C41.9633333,25.6434474 43.5656667,24 45.5487037,24 C47.4838889,24 49.1397037,25.6427368 49.1397037,27.6705789 C49.1397037,29.4106579 48.143963,30.5716579 46.6830741,31.0512632 L48.3367778,41.0995263 L53.0072593,35.4963158 Z" id="Combined-Shape" fill="#FBCDCB"></path>
                <path d="M48.772,52 L31.245,52 C29.551,52 28.035,50.927 27.472,49.33 L23.38,37.726 C21.51,37.329 20,35.464 20,33.371 C20,30.943 22.015,28.892 24.399,28.892 C26.797,28.892 28.748,30.901 28.748,33.371 C28.748,34.012 28.595,34.56 28.172,35.338 L31.239,38.899 L32.676,31.787 C31.253,31.162 30.197,29.512 30.197,27.671 C30.197,25.096 32.256,23 34.788,23 C37.316,23 39.373,25.096 39.373,27.671 C39.373,28.793 38.916,30.15 37.914,31.018 L40.065,37.413 L42.228,30.906 C41.418,30.028 40.963,28.882 40.963,27.671 C40.963,25.096 43.021,23 45.549,23 C48.08,23 50.14,25.096 50.14,27.671 C50.14,29.438 49.279,30.879 47.797,31.663 L48.969,38.78 L51.758,35.433 C51.43,34.818 51.25,34.101 51.25,33.373 C51.25,30.97 53.242,28.94 55.6,28.94 C57.985,28.94 60,30.97 60,33.373 C60,35.395 58.633,37.161 56.733,37.708 L52.536,49.356 C51.966,50.938 50.453,52 48.772,52 Z M24.399,30.892 C23.099,30.892 22,32.027 22,33.371 C22,34.644 23.008,35.804 24.115,35.804 C24.54,35.804 24.918,36.072 25.058,36.472 L29.358,48.665 C29.64,49.464 30.398,50 31.245,50 L48.772,50 C49.613,50 50.369,49.469 50.654,48.679 L55.039,36.51 C55.165,36.161 55.473,35.911 55.84,35.859 C57.092,35.683 58,34.637 58,33.373 C58,32.077 56.878,30.94 55.6,30.94 C54.348,30.94 53.25,32.077 53.25,33.373 C53.25,34.024 53.513,34.557 53.76,34.838 C54.084,35.208 54.09,35.759 53.775,36.137 L49.105,41.74 C48.855,42.041 48.451,42.168 48.074,42.065 C47.697,41.962 47.414,41.648 47.35,41.263 L45.696,31.214 C45.616,30.727 45.903,30.255 46.371,30.101 C47.178,29.837 48.14,29.2 48.14,27.671 C48.14,26.223 46.953,25 45.549,25 C44.123,25 42.963,26.198 42.963,27.671 C42.963,28.526 43.334,29.296 44.006,29.838 C44.331,30.1 44.459,30.536 44.327,30.932 L41.019,40.882 C40.884,41.29 40.502,41.565 40.072,41.566 L40.07,41.566 C39.641,41.566 39.259,41.292 39.123,40.885 L35.776,30.938 C35.617,30.463 35.833,29.944 36.281,29.723 C36.998,29.368 37.373,28.422 37.373,27.671 C37.373,26.223 36.189,25 34.788,25 C33.359,25 32.197,26.198 32.197,27.671 C32.197,28.978 33.103,30.024 33.881,30.052 C34.175,30.063 34.449,30.202 34.63,30.433 C34.813,30.663 34.884,30.962 34.825,31.25 L32.795,41.298 C32.719,41.672 32.437,41.971 32.067,42.067 C31.701,42.164 31.307,42.043 31.057,41.752 L26.19,36.101 C25.905,35.771 25.868,35.293 26.098,34.922 C26.7,33.951 26.748,33.656 26.748,33.371 C26.748,32.027 25.672,30.892 24.399,30.892 Z M29,54 L51,54 C51.5522847,54 52,54.4477153 52,55 C52,55.5522847 51.5522847,56 51,56 L29,56 C28.4477153,56 28,55.5522847 28,55 C28,54.4477153 28.4477153,54 29,54 Z" id="Combined-Shape" fill="#EA524E"></path>
            </g>
        </g>
    </g>
</svg>